<svg xmlns="http://www.w3.org/2000/svg" xml:space="preserve" version="1.0" viewBox="0 0 64 64"><g fill="#394240"><path d="M59 29H47a3 3 0 0 0 0 6h12a3 3 0 0 0 0-6zm0 4H47a1 1 0 1 1 0-2h12a1 1 0 1 1 0 2zM57.312 44.57l-11.275-4.104a3 3 0 0 0-2.053 5.638l11.276 4.105a3 3 0 1 0 2.052-5.639zm-.085 3.161a.999.999 0 0 1-1.281.598l-11.277-4.104a1 1 0 1 1 .684-1.88l11.276 4.104a1 1 0 0 1 .598 1.282zM46.036 23.53l11.276-4.104a3.001 3.001 0 0 0-2.053-5.639l-11.275 4.105a3 3 0 1 0 2.052 5.638zm-1.368-3.758 11.276-4.104a1 1 0 0 1 .684 1.88l-11.277 4.104a1 1 0 1 1-.683-1.88zM30 0H14a3.96 3.96 0 0 0-1.527.309 3.96 3.96 0 0 0-1.309.871C10.766 1.578 2 12 2 32s8.316 29.688 8.672 30.219c.113.172.262.309.395.457.062.066.109.137.176.199.328.316.699.562 1.102.742.086.043.176.07.266.102.444.164.909.281 1.381.281H30c2.211 0 4-1.789 4-4V46c0-2.211-1.789-4-4-4h-9a1 1 0 0 1-1-1V23a1 1 0 0 1 1-1h9c2.211 0 4-1.789 4-4V4c0-2.211-1.789-4-4-4zm-4 44h4c1.103 0 2 .897 2 2v14c0 1.103-.897 2-2 2h-4V44zm-4 0h2v18h-2V44zm-2-24a2 2 0 0 0-2 2v20a2 2 0 0 0 2 2v18h-6.008c-.175 0-.407-.053-.726-.17l-.09-.031a1.824 1.824 0 0 1-.511-.331c-.04-.047-.08-.095-.123-.141a4.83 4.83 0 0 0-.138-.148c-.03-.032-.062-.063-.071-.072a5.297 5.297 0 0 0-.203-.274C9.687 57.643 4 48.447 4 32c0-19.467 8.524-29.346 8.586-29.414.179-.18.397-.324.655-.431.247-.102.503-.155.759-.155h6v18zm4 0h-2V2h2v18zm8-2c0 1.103-.897 2-2 2h-4V2h4c1.103 0 2 .897 2 2v14z"/></g><g fill="#F76D57"><path d="M30 2h-4v18h4c1.103 0 2-.897 2-2V4c0-1.103-.897-2-2-2zM22 2h2v18h-2zM30 44h-4v18h4c1.103 0 2-.897 2-2V46c0-1.103-.897-2-2-2zM22 44h2v18h-2zM13.241 2.155a1.956 1.956 0 0 0-.655.431C12.524 2.654 4 12.533 4 32c0 16.447 5.687 25.643 8.131 28.832.104.135.172.228.203.274a9.331 9.331 0 0 1 .209.22c.043.046.083.094.123.141a1.8 1.8 0 0 0 .511.331l.09.031c.318.117.551.17.726.17H20V44a2 2 0 0 1-2-2V22a2 2 0 0 1 2-2V2h-6c-.256 0-.512.053-.759.155z"/></g><g fill="#F9EBB2"><path d="M22 2h2v18h-2zM22 44h2v18h-2z"/></g><g opacity=".2"><path d="M30 2h-4v18h4c1.103 0 2-.897 2-2V4c0-1.103-.897-2-2-2zM30 44h-4v18h4c1.103 0 2-.897 2-2V46c0-1.103-.897-2-2-2z"/></g><g fill="#B4CCB9"><path d="m45.352 21.651 11.277-4.104a1 1 0 0 0-.684-1.88l-11.276 4.104a.998.998 0 0 0-.598 1.281.997.997 0 0 0 1.281.599zM59 31H47a1 1 0 1 0 0 2h12a1 1 0 1 0 0-2zM56.629 46.449l-11.276-4.104a1 1 0 1 0-.684 1.88l11.277 4.104a1 1 0 0 0 .683-1.88z"/></g></svg>