<svg xmlns="http://www.w3.org/2000/svg" width="1664" height="1532" version="1.0" viewBox="0 0 1248 1149"><g style="fill:#000"><path d="M617.4 4.4c-9.6 4.2-10.9 18-2.3 25.8l2.9 2.7V97h11l.1-5.8c.1-3.1.2-17.7.3-32.5l.1-26.7 3.4-3.2c4.7-4.4 6.3-8.8 5.2-13.9C636 5.5 626.2.6 617.4 4.4zM615.5 129.7c-7.2 3.7-10.5 9-10.5 16.6 0 6 4.4 14.5 9.3 17.6l3.7 2.4v116.4c0 92.2-.3 116.4-1.2 116.8-.7.2-8.7 1.1-17.8 2-43 4.3-73.8 13.7-98.3 30.2-9.4 6.3-33 25.4-40.2 32.4-3.3 3.3-6.5 5.9-7.1 5.9-.6 0-3.6 2.6-6.6 5.7-3.1 3.2-9.1 9.2-13.4 13.3-41.7 40.3-70.2 91-81.4 144.8-2.5 11.7-6 37.6-6.1 45.1-.1 8.3-1 10.5-4.2 10.9-2.8.3-2.8.4-2.5 7 .3 6.6.4 6.7 3.3 7.2 3 .5 3 .6 3.8 9 3.9 42.7 10.6 67.6 27.7 102.5 14.4 29.5 32.9 54.5 58.4 79.4 4.7 4.6 8.6 8.8 8.6 9.5 0 1.7-16.3 23.5-18.8 25-.5.3-2.9-1.3-5.3-3.5-3-2.7-12.9-8.2-30.4-16.8-25.5-12.5-57.1-29.3-67-35.5-2.7-1.8-7.1-4.4-9.7-5.9l-4.8-2.8v48.3l20.3 9.8c11.2 5.4 29.7 13.9 41.3 18.8 28.7 12.3 34.4 15 34.4 16.3 0 1.5-10 15-28.1 37.8-14.9 18.7-30.9 41-30.9 42.9 0 .5 1.8 2.3 3.9 4l4 3.2 7-9.3c11.7-15.3 33.2-44.2 39.3-52.4 8.7-12.1 19.4-26.2 24.6-32.7 2.6-3.3 5.3-7.1 6.1-8.5 3-5.4 23.2-30.5 25.6-31.7 1.4-.7 2.5-.9 2.5-.3 0 .5-.5.9-1.1.9-2.4 0 2 3.6 14.3 11.7 30.8 20.2 62.2 33.3 97.8 40.7 15.8 3.3 18.3 3.7 36 5l15.5 1.1.3 52.2c.2 41.5 0 52.3-1 52.3-.7 0-4 1.3-7.3 2.8-7.3 3.5-14.2 10-17.5 16.7-2.2 4.4-2.5 6.2-2.4 15.5 0 9.5.3 11 2.9 16.3 6.7 13.6 23.1 22 36.7 18.9 12.6-2.9 23.5-11.8 27.7-22.9 7.2-18.9-3.3-41-21.7-45.7l-4.7-1.2-.5-8.5c-.3-4.6-.4-28.2-.2-52.5l.4-44.1 10.6-.6c36.3-2.1 74-12.3 107.9-29 17.1-8.4 25.1-13.3 41.8-25.7 52.1-38.8 88.4-93.9 103.5-157.2 3.2-13.4 7-40.3 7-49.3 0-3 .5-5.7 1.2-6.1.6-.4 3.1-.7 5.5-.6h4.4l-.3-5.6-.3-5.7-4-.5c-2.2-.3-4.5-.9-5.1-1.3-.6-.4-1.4-5.8-1.8-12.9-2.2-38.3-10.7-71.8-26.7-105.7-13.4-28.2-32-54.6-57.3-80.9-7.5-7.8-13.6-14.8-13.6-15.5.1-1.3.8-2.3 5.3-7.7 3.7-4.3 4.6-3.9 17.9 8.8 9.3 8.9 11.1 10.2 17.4 12.2 7.5 2.5 31.1 14.3 51.9 26 19.4 10.9 38.8 22.2 40.6 23.7 3.8 3.2 3.9 2.1 3.7-22.9l-.3-24.2-15-7.8c-17.2-8.8-40.8-19.6-64-29.2-22.2-9.2-27.5-11.8-27.5-13.2 0-1.7 7.4-12.4 16.5-23.9 10.2-12.9 18.5-25.9 18.5-28.9 0-2.8 2.4-3.6 3.4-1.1 1 2.6 3 1.6 6.6-3.3 13.1-17.6 25.3-34.6 28.6-39.9 2.1-3.5 8.2-12 13.3-19 10.7-14.4 49.5-68.7 55.5-77.6l4-5.9-3-2.3c-1.6-1.3-4-3.2-5.3-4.4-1.4-1.2-2.8-2-3.1-1.9-1.4.6-10.8 12.6-21.5 27.3-6 8.2-13.6 18.8-17 23.5-3.4 4.7-9 12.5-12.5 17.5-5.5 7.7-49.8 66.9-55.5 74.1-1.6 2.1-1.7 2.8-.7 4.5 1.1 1.7.6 2.8-4.5 9.5-3.2 4.2-10.3 13.9-15.8 21.8-14.4 20.4-18.5 25.6-20.4 25.6-1 0-5.1-1.1-9.2-2.5-15.7-5.4-48.8-12.9-46.2-10.4.4.3 3.4 2.4 6.5 4.6 8.1 5.5 33.8 28.4 33.8 30 0 1.3-3.3 6.7-6.3 10.5-2.2 2.7-3.8 2.2-9.8-2.9-12.2-10.4-34.7-27.8-43.2-33.5-15.7-10.3-33.1-17.5-53.6-22.4-12.7-3-40.5-7.1-52.6-7.7l-9-.5-.3-117.3-.2-117.3 3.6-3c5.3-4.3 9.4-11.2 9.4-15.8 0-4.4-2.7-10.2-6.2-13.5-5.4-5.1-15.3-6.8-21.3-3.6zm2.3 385.8c.1 31.3 0 58-.3 59.2-.4 1.5-1.3 2.3-2.7 2.3-3.3 0-13.4 1.9-21.8 4.2-9.5 2.5-23.7 8.7-31.6 13.9-3.3 2.1-6.8 3.9-7.7 3.9-2.4 0-12-11.7-31.5-38.7-3.7-5.1-13.6-18.3-22-29.4-14.4-18.9-18.1-24.4-17.1-25.3 1.4-1.2 19.2-12.8 22.9-15 26.8-15.4 55.4-25.8 82.5-30 5.5-.9 11.1-1.7 12.5-2 1.4-.2 5.7-.3 9.5-.2l7 .1.3 57zm32.7-56c30.7 4 52.8 10.8 79.5 24.6 13.6 7.1 34.4 20.7 34.8 22.9.1.9-4.2 7.4-9.6 14.5-16.1 21.4-21 27.9-40.2 53.5-10 13.5-18.9 24.6-19.6 24.8-.8.2-5-2.2-9.4-5.3-10.6-7.5-24.3-13.6-33.8-15.1-2.1-.3-4-.8-4.4-1-.4-.3-4.2-.9-8.4-1.4-4.5-.5-8-1.4-8.5-2.2-1-1.5-1.2-115.1-.2-116.1 1-1.1 6.9-.8 19.8.8zm-165.1 72.2c6.3 8.7 14.2 19.2 17.6 23.3 3.3 4.1 11.6 14.7 18.3 23.4 6.7 8.8 14.3 18.4 17 21.4 2.6 3 4.7 6.3 4.7 7.2 0 .9-1.4 2.9-3.1 4.6-4.3 4.1-14.1 17.9-17.4 24.4-6.2 12.3-9.4 24.6-12.2 48l-.8 6.5h-15c-8.2 0-22-.2-30.5-.4l-15.5-.3v12.4l30-.1c16.5-.1 30.5.2 31.1.6.5.5 1.6 3.9 2.2 7.6 2.6 14.4 9.1 30.7 16.5 41.7 1.7 2.5 5.9 8 9.4 12.2 6.4 7.7 6.4 7.7 4.9 10.7-.9 1.6-3.3 5-5.3 7.4-9.7 11.4-56.5 70.1-63 78.9-1.9 2.7-3.9 4.8-4.5 4.8-1.7 0-16.1-15.1-24.8-26-8.7-11-18.1-24.9-24.3-36.2-13.5-24.3-24.4-61.7-27.3-93.6l-.7-7.2h9.4l-.3-6.3-.3-6.2-3.5-.5c-3.3-.5-3.5-.8-3.8-4.5-.6-6.4 1.6-24.8 4.8-40.5 8.3-41 25.4-76.4 51.9-107.4 7.5-8.8 20.3-21.6 21.7-21.6.7 0 6.4 7.1 12.8 15.7zm292.7-14c.9 1 4.1 4.1 7.1 7 7.1 6.7 13.7 14.3 23 26.8 26.8 36.1 41.5 77.6 45.4 128.5.5 7.2.3 8.8-1 9.9-1.4 1.1-11.4 1.3-57.8.7-30.8-.3-56.4-.9-56.8-1.1-.4-.3-1.1-4-1.5-8.2-2.3-25-9.1-43-23.5-62.1-3.8-5.2-7-10.2-7-11.1 0-1.9 21.9-31.3 41-55.2 11.2-13.9 16.2-20.3 24.5-31.7 2.2-2.8 4.2-5.2 4.5-5.2.3 0 1.3.8 2.1 1.7zM579.7 619.5c5.6 2.4 12 9.2 14.4 15.3 3.1 8.4 2.3 18.7-2.2 25.1-4.1 6-8.1 9.1-14.3 11.3-11.2 3.9-22.4 1.1-30.1-7.4-7.6-8.4-9.2-18.6-4.5-29.3 2.8-6.6 12.4-14.9 19.2-16.6 4.1-1 13.2-.1 17.5 1.6zm60.1 16.7c.3 4.4.2 4.6-2.8 5.3-6.4 1.4-6.5 1.7-6.8 45.1-.3 45.4-1.9 40.4 12.9 39.7 13.2-.6 15.4-1 18.9-4 4.1-3.4 6.2-7.7 6.9-14.3l.6-5.5 4.9-.3 4.8-.3-.3 17c-.2 9.3-.6 17.2-1 17.5-.4.5-24.7.7-64.6.6H599v-4.3c0-4.2.2-4.4 3.8-5.5 6.8-2.1 6.7-1.2 7-45.5l.3-39.8-5.3.3-5.3.3-.3-4.4c-.6-7.5-1.5-7.2 20.5-6.9l19.8.3.3 4.7zM847.9 703h6.4l-.7 8.2c-1.7 21.4-9.1 54.4-15.2 68.3-.7 1.6-2.7 6.4-4.4 10.5-9.4 22.6-30.3 52.8-47.9 69.2-3.4 3.2-6.5 5.8-6.9 5.8-.4 0-3.6-3.9-7.2-8.7-3.5-4.8-9.8-12.8-14-17.7-4.1-5-13.6-16.3-21-25.1-7.4-8.9-17-20.4-21.4-25.6-4.3-5.2-8.9-10.6-10.2-12.1-1.3-1.5-2.4-3.2-2.4-3.7s1.6-2.6 3.5-4.7c5-5.5 14.7-19.9 18.2-26.9 3.8-7.5 7.5-18.5 9.9-29 1-4.4 2.3-8.4 2.9-8.8.5-.4 24.2-.5 52.5-.3 28.3.3 54.4.5 57.9.6zm-287.6 80.3c16.6 10.5 36.3 17.3 54.2 18.9l3 .3.3 59.9c.1 40.8-.1 60.3-.8 61.1-1.5 1.8-12.8 1-31-2.1-35.1-6-64.2-17.2-89.6-34.3-14.3-9.7-16.8-11.7-16.1-13.3.2-.7 5.8-7.9 12.3-15.9 14.5-17.8 20.7-25.7 25.7-32.7 3.2-4.6 8.4-11.1 31.4-39.5 2.6-3.1 4.8-5.7 5-5.7.2 0 2.7 1.5 5.6 3.3zm137.4.9c5.1 5.4 24.2 28.4 29.6 35.8 2.2 3 12 15.4 21.7 27.5 22.4 27.9 21.1 25.8 17.5 28.7-32.6 26.1-82.7 45-128 48.2-9.3.7-8.5 6.5-8.2-61.7l.2-60.2 2.5-.3c19-2.1 42-10.3 53.5-19 2.2-1.7 4.7-3.1 5.5-3.1.9-.1 3.4 1.8 5.7 4.1zm-65.6 306c4.7 1.6 9 5.3 11.7 10.1 2.7 5.1 3 14.2.6 19.3-2.1 4.5-10.5 11.9-15 13.4-7.9 2.6-18.8-2.1-24.9-10.8-2.6-3.8-3-5.2-3-11 0-6 .4-7.2 3.3-11.5 1.9-2.7 5.2-6.1 7.4-7.8 3.5-2.5 5-2.9 10.3-2.9 3.4 0 7.7.5 9.6 1.2z"/><path d="M417 696.5v6.5h5.8c3.1 0 6.2-.4 6.8-.8.6-.4 1.4-3.3 1.8-6.5l.7-5.7H417v6.5zM216.1 132.2c-5.6 3-8.1 7.5-8.1 14.6 0 8.5 4 14.1 11.5 16.1 5.6 1.5 11-.2 15.6-4.8 10.1-10.1 4.6-26.1-9.6-27.7-4.1-.5-5.8-.1-9.4 1.8zM1015 133.2c-5 3.4-7.2 7.1-7.8 12.6-.5 6 2.1 11.5 7.2 15 3.8 2.6 11.2 3 15.4.8 3.1-1.6 7.4-6.1 9.1-9.3 2.8-5.5-.5-15.7-6.3-19.3-4.7-2.9-13.2-2.8-17.6.2zM545.2 157c-.6 1.1-1.2 2.9-1.2 4 0 5 8.7 8.3 11 4.1 1.4-2.6 1.3-7.4-.2-8.9-2-2-8.1-1.5-9.6.8zM692.2 156.6c-1.4 1-2.2 2.6-2.2 4.4 0 4.1 2.5 6.2 6.8 5.8 3.1-.3 3.8-.8 4.6-3.5 1.8-6.4-3.8-10.5-9.2-6.7zM491.4 168.7c-2.2.4-4.4 4-4.4 7.3 0 2.6 2.7 5 5.5 5 2.6 0 6.5-4.2 6.5-7.1 0-1.9-3.4-6-4.7-5.8-.5.1-1.8.4-2.9.6zM751.6 170.1c-3.1 2.5-3.3 4.7-.5 8.3 4 5.1 11.8 1.7 10.5-4.8-1.1-5.6-5.4-7.1-10-3.5zM429 190.1c-.6 1.1-.8 3.3-.5 5 1.6 7.1 11.5 5.5 11.5-1.9 0-4.8-8.8-7.3-11-3.1zM808.6 189.9c-2.5 2.7-1.7 6.9 1.7 8.9 2.5 1.5 3 1.5 5.5.2 3.3-1.9 4.2-6.9 1.7-9.4-2.2-2.2-6.8-2-8.9.3zM991.7 198.5 987 206l4.2 3c2.3 1.7 4.5 2.9 4.9 2.8 1.3-.5 9.9-12 9.9-13.2-.1-.9-8.2-7.6-9.3-7.6-.2 0-2.5 3.4-5 7.5zM247.5 194.1c-1.6 1.1-3.7 2.4-4.5 2.8-1.1.8-.5 2.2 3.3 8 2.6 3.9 5.1 7.1 5.6 7.1.4 0 1.6-.9 2.6-2s2.6-2.2 3.6-2.5c1.1-.4 1.9-1.2 1.9-1.8 0-1.6-7.8-13.7-8.7-13.6-.5 0-2.1.9-3.8 2zM382.7 219.6c-1.4 1.4-.7 3.5 1.1 3.2.9-.2 1.7-1 1.7-1.7 0-1.6-1.8-2.5-2.8-1.5zM861.7 219.7c-.4.3-.7 1.5-.7 2.5 0 2.9 4.4 2 4.8-1 .3-1.6-.2-2.2-1.6-2.2-1 0-2.2.3-2.5.7zM273.7 236.8c-3.9 4.3-.7 12.2 4.9 12.2 6 0 9.2-5.1 6.8-10.8-1.2-2.9-1.7-3.2-5.7-3.2-3 0-4.9.6-6 1.8zM877.8 246.7c-1.5.2-4.1 2-5.8 3.9-2.5 2.9-3 4.3-3 8.5 0 4.5.4 5.5 3.4 8.5s4 3.4 8.6 3.4 5.6-.4 8.6-3.4 3.4-4 3.4-8.9-.4-5.9-3.1-8.6c-1.7-1.7-3.9-3.1-4.9-3.1-1 0-2.4-.2-3.2-.3-.7-.2-2.5-.2-4 0zM357.6 249.6c-5.2 5.3-5.2 14.7 0 19.3 2.4 2 3.6 2.3 8.6 1.9 7.3-.5 10.7-3.4 11.5-9.6 1.2-8.6-3.7-14.2-12.2-14.2-4.3 0-5.7.5-7.9 2.6zM297.3 268.9c-2.9 2.7-5.3 5.1-5.3 5.3 0 .2 4.3 6.2 9.5 13.4 5.3 7.1 15.2 20.8 22 30.4 26.5 37.3 44.7 62.7 47.6 66.3l3.1 3.8 3.9-3.5c2.1-2 5-3.8 6.4-4.2 1.4-.3 2.5-1.3 2.5-2.2 0-2.7-6.6-12.8-17.4-26.7-11.4-14.6-13.4-17.3-17.3-23-1.5-2.2-5.7-8.1-9.4-13-3.6-5-10.6-14.7-15.6-21.6-16.2-22.8-21.8-29.9-23.3-29.9-.8 0-3.9 2.2-6.7 4.9zM80 288.4c-12.4 3.5-20.8 10.4-26.1 21.3-2.9 5.8-3.4 8.1-3.7 15.6-.2 4.9-.1 10.8.2 13.2 1.6 10 13.1 23.1 24.6 27.8 4.4 1.7 7.5 2.2 15 2.2 8.8 0 10-.3 16.5-3.5 25.9-12.7 32.2-44.3 12.9-65-9.8-10.5-26.1-15.3-39.4-11.6zm18 14.1c10.4 3.7 17 12.4 17.8 23.6.6 8.4-1.4 14.3-6.6 20.1C93 364.1 64 352.4 64 328c0-18.2 17.5-31.3 34-25.5zM1132.6 288.7c-9.3 2.8-19.8 11-23.6 18.3-5.8 11.4-6.6 28.2-1.8 39.1 6.5 14.3 24.2 24.1 40.8 22.5 14.1-1.4 27.8-11.5 34.2-25.3 2.7-5.7 3.2-7.8 3.3-15.2l.1-8.6 13.9-8.7c7.7-4.9 15.2-9.4 16.8-10 1.5-.7 2.7-1.9 2.7-2.7 0-1.9-4.2-9.1-5.3-9.1-1.6 0-20.3 10.9-26.6 15.5l-6.1 4.5-1.8-2.2c-8.3-10.4-13.6-14.6-21.9-17.5-6.5-2.2-18.6-2.5-24.7-.6zm19.1 13.8c9.5 2.8 17.1 12.1 18.9 23.2 1 6.4-1.8 14.2-7.2 20.2-6.8 7.6-11.1 9.4-20 8.9-14.9-1-25.2-11.9-25.3-27.1-.2-12.1 7.6-22 19.9-25.3 6-1.7 7.8-1.7 13.7.1zM10.6 292.2c-1 2.4-2 4.8-2.3 5.5-.3.7 1.1 2 3.2 3 3.7 1.7 3.8 1.7 4.9-.1.6-1 2.1-3.1 3.4-4.6 1.2-1.5 2.2-3.1 2.2-3.4 0-1-6.3-4.6-8-4.6-.8 0-2.4 1.9-3.4 4.2zM499.7 290.8c-3.9 4.3-.7 12.2 4.9 12.2 3.7 0 6-1.5 7.4-5 1.1-2.8 1.1-3.4-.7-5.8-2.6-3.5-9-4.3-11.6-1.4zM736.6 291.5c-3.6 5.5-.8 11.5 5.4 11.5 4.7 0 7.4-3.1 7.2-8.3-.1-3.9-2.4-5.7-7.3-5.7-2.8 0-4.1.6-5.3 2.5zM252.7 309.8c-4.9 5.4 1.8 13.2 7.6 8.8 3.5-2.7.8-10.6-3.7-10.6-1.3 0-3 .8-3.9 1.8zM985.6 309.6c-.9.8-1.6 2.8-1.6 4.4 0 5.4 5.9 8 9.3 4.2 5-5.5-2.6-13.8-7.7-8.6zM464.5 328.3c-1.9 4.7-1 7.4 3.1 8.7 4.6 1.6 7.1.5 8.4-3.6 1.7-5.2-.6-8.4-6.1-8.4-3.6 0-4.1.3-5.4 3.3zM772.6 327.2c-3.5 4.9-.7 10.8 5.1 10.8 5.3 0 8.4-7.8 4.5-11.3-2.7-2.5-7.8-2.2-9.6.5zM430.5 337.7c-3.3.8-4.5 2.4-4.5 5.9 0 7 7.8 10 12 4.7 4.2-5.4-.6-12.2-7.5-10.6zM809.6 340.2c-3.3 4.6-.4 10.8 4.9 10.8 5.5 0 8.7-7.7 4.7-11.3-2.7-2.5-7.8-2.2-9.6.5zM380.4 385.6c-.4 1.6-.1 3.8.9 5.8 2.1 4.3 12.7 19.5 21.6 31.2 6.8 8.9 12.1 17 12.1 18.5 0 .4-4.2 2.1-9.2 3.9-13.7 4.9-46.4 18.9-69 29.6-23.1 10.9-28.8 13.9-30.5 16.2-1 1.2-1.3 7.8-1.3 24.9 0 12.8.2 23.3.5 23.3s1.8-.8 3.3-1.8c5.2-3.6 24.8-15 38.2-22.4 28.7-15.8 46.5-24 63-29l9.4-2.8 11.1-10.6c13.1-12.7 9.9-9.5 23.6-23.7 12.9-13.4 22.3-21.4 30.1-25.7 2.9-1.6 5.1-3 4.8-3-.3 0-7 1.3-15 2.9-12.9 2.7-24.3 5.9-41.9 11.8l-5.3 1.8-2.5-3c-3-3.6-9.3-12.5-15.3-21.5-2.5-3.6-8.5-11.7-13.4-17.8-7.6-9.6-9.3-11.2-11.7-11.2-2.2 0-3 .6-3.5 2.6zM173.3 400.8c-2.3 1.5-3.4 6.2-2.1 9 3.6 7.4 13.8 5.1 13.8-3.1 0-4.7-7.5-8.5-11.7-5.9zM1064 402c-4.3 4.3-1.1 12 4.8 12s9.6-8.5 5.4-12.3c-2.5-2.3-7.8-2.1-10.2.3zM38 417.8c-4 4-4.1 8.8-.4 12.6 3.7 3.7 8.6 3.5 12.5-.3 1.7-1.7 2.9-4 2.9-5.5 0-3.4-4.7-8.3-8.7-9.1-2.8-.6-3.8-.2-6.3 2.3zM1197.1 417.9c-2.9 2.9-3.6 7.7-1.6 10.7 3.4 5.3 9.6 5.6 14.1.7 3.1-3.3 3-6.4-.2-10.2-2.1-2.5-3.3-3.1-6.5-3.1-2.5 0-4.6.7-5.8 1.9zM142.5 463.9c-1.3 2.7-1.3 3.1.1 4.5 4.1 4.1 10.1-.2 6.9-5-2.1-3.3-5.1-3.1-7 .5zM1098.1 462.4c-1.8 2.2-1 7 1.2 7.4 2.2.4 5.7-2.5 5.7-4.8 0-3.6-4.6-5.3-6.9-2.6zM34.2 485.7c-2.7.5-6.2 5.8-6.2 9.3.1 7.1 10.4 10.7 15.5 5.5 4.4-4.3 2.3-12.3-3.6-14.4-1.8-.6-3.2-1-3.3-1-.1.1-1.1.4-2.4.6zM1207 485.9c-3.1.8-6.3 6.7-5.4 10.1.9 4 4.3 7 8 7 3.8 0 9.4-4.7 9.4-8 0-3.4-3.1-7.8-6.3-9-1.7-.5-3-1-3.1-.9-.1.1-1.2.4-2.6.8zM119.1 496.6c-3.7 4.7-2 10.2 3.8 12.2 2.3.8 3.7.7 6.3-.6 2.7-1.4 3.4-2.3 3.6-5.4.6-7.8-9.1-12.1-13.7-6.2zM1116.9 495c-4.7 2.8-4.4 10.3.5 13.6 7 4.5 15.1-5 9.9-11.5-2-2.4-8-3.7-10.4-2.1zM952.7 511.2c-.3 7.9-.2 19 .1 24.7l.7 10.4 8.8 5.4c4.9 2.9 17.3 10.9 27.5 17.6 17.1 11.3 25.1 16.9 59.2 41.7 36.7 26.7 98.1 75.5 98.8 78.7.3 1.1-5.2 1.2-30.6.7-17-.4-36.2-.3-42.6.1l-11.6.7v10.7l50 .3c60.6.4 57.8-.3 45 11.5-12.3 11.5-46.3 38.4-75.4 59.8-42.9 31.6-53.7 39.1-78.1 54.6-11 7-27.1 17.3-35.7 23L953 861.3v22.8c0 12.6.2 22.9.5 22.9s6-3.1 12.8-6.8c13.3-7.5 20.4-11.4 34.2-18.7 5-2.6 9.5-5.1 10-5.5.6-.4 4.6-2.7 9-5 22.8-12.4 58.6-34.9 86.6-54.6 22.8-16 68.4-51 92.9-71.3 3.6-3 8.7-7.2 11.4-9.5 2.8-2.3 9.9-8.4 15.9-13.6 6.1-5.2 12.3-10.5 13.8-11.8 1.6-1.3 2.9-2.9 2.9-3.7 0-1.3-16.8-16.8-37.7-34.6-6.5-5.5-14.3-12.2-17.3-14.8-3-2.6-9.8-8.1-15-12.1-5.2-4.1-16.9-13.3-26-20.5-19.3-15.3-43.3-33.3-57.5-43-5.5-3.8-12.3-8.5-15-10.5-18.4-13.5-56.9-37.7-95-59.7-6.9-4.1-25.6-14.3-26-14.3-.1 0-.5 6.4-.8 14.2zM270.5 508.6c-18.4 10.2-45.6 26.4-58 34.4-3.3 2.2-8.9 5.8-12.5 8-6.2 3.8-16.5 10.9-38.6 26.4-18.5 13-50.6 37.1-66.1 49.6-8.6 6.9-18.2 14.5-21.3 17-6.8 5.3-21.6 17.7-28 23.6-2.5 2.3-11.2 9.9-19.5 16.9C8.6 699.8 3 705 3 706.6c0 4.6 93.7 81.1 128.9 105.2 28 19.2 35.3 24 47.4 31.4 27.1 16.6 73.7 43.8 75 43.8.3 0 5.2 2.6 10.9 5.9 14.7 8.3 24.9 13.3 25.7 12.6.3-.4.6-11.1.6-23.8v-23.2l-4.5-2.9c-2.5-1.5-11.9-7.3-21-12.8-44.3-26.8-98.9-64.6-143.5-99.2C93.7 721.2 78 707.8 78 705.4c0-.7.6-1.6 1.3-2.1.6-.4 29.8-1 64.7-1.3l63.5-.5.7-5c.5-3.4.3-5.2-.5-5.8-.7-.4-26.3-.5-56.9-.3-30.7.3-55.8.1-55.8-.3 0-.9 17-14.6 48-38.9 10.7-8.3 22-17.1 25-19.5 10-7.8 50.3-37.2 62-45.2 29.7-20.2 42.2-28.6 51.1-33.8 8.3-4.8 9.7-6 10.3-8.8.8-4 .8-37.2 0-42.2-.4-2-.9-3.7-1.3-3.7-.3 0-9.1 4.8-19.6 10.6z"/><path d="M219.2 690.7c-3.2.4-3.2.5-2.6 4.6.3 2.3.7 4.8 1 5.4.2 1 4.7 1.3 17.9 1.3H253v-3.8c0-4.2 1.3-6.8 2.8-5.8.8.5.8 1.5.2 3.1-.7 2-.6 2.5.5 2.5.8 0 1.5-.5 1.5-1 0-2 1.6-.9 2.6 1.9 1.5 3.7 1.6 3.7 35.4 3.1l27.5-.5v-11l-50.5-.1c-27.8 0-52 .1-53.8.3zM927.7 690.7l-3.8.4.3 5.2.3 5.2h126l.3-5.1c.3-4.6.1-5.2-2-5.8-2.5-.6-114.7-.5-121.1.1zM933.5 870.2c-12.1 7.4-27 15.9-39 22.2-7.1 3.8-13.4 7.2-14 7.6-.5.4-7.7 4.2-16 8.5-16.2 8.4-26 13.9-28.7 16.3-1.1.9-1.8 2.9-1.8 4.8 0 3.1-2.4 6.9-9.6 15.7-1.4 1.7-2.1 3.4-1.7 4.5.7 2 8.9 12.8 10.3 13.7 1.1.7 9.7-3.5 16.5-8.1 2.8-1.8 14-7.1 25-11.8 22.1-9.3 45.9-20.1 57.7-26.2l7.7-3.9.1-5.8c.2-6.7.2-7.4.1-26.2-.1-8-.4-14.5-.8-14.4-.5 0-3 1.4-5.8 3.1zM861.8 991.6c-2.1 1.3-3.8 2.9-3.8 3.4 0 1 6 9.3 25.6 35.5 11 14.6 12.1 15.7 14.2 14.6 4-2.2 6.2-5.2 5.3-7-4.9-9-35.2-49.2-37.1-49-.3 0-2.2 1.1-4.2 2.5zM223 1027.3c-11.6 4-18.7 11.4-21.6 22.7-5.1 19.9 10.1 40.3 30 40.2 13.1 0 25.7-8.3 31.7-21 2.9-5.9 3.1-7.2 2.6-13.3-1.2-13.8-11.5-25.9-25.2-29.5-6.9-1.9-9.9-1.7-17.5.9zm14.6 15.2c5.2 1.5 11.1 6.5 9.9 8.4-.3.7-.1 1 .6.9 1.8-.4 2.2 5.8.8 10.9-2 7.4-11.2 14-17.7 12.8-.9-.2-3-.7-4.6-1-3.9-.8-9.3-6.6-10.6-11.3-2.5-9.4 2.8-18.2 12.8-21.2 3.7-1.1 3.3-1.2 8.8.5z"/><path d="M234 1054c1.1.7.7 1-1.7 1-3 0-3.3.3-3.3 3.2 0 1.8-.2 4.2-.4 5.3-.2 1.1-.1 1.4.1.7.3-.7 2.1-1.2 4.4-1.2h3.9v-5c0-4.5-.2-5-2.2-5-1.9 0-2 .2-.8 1zM1002.5 1026.1c-12 4.2-19 11-22.5 21.9-4 12.5-1.1 24.7 8.2 33.8 6 6 13.2 8.5 22.8 8 13.6-.8 23.8-7.5 29.5-19.5 9.5-19.9-5.8-44.1-28.5-45-3.6-.1-7.8.2-9.5.8zm10.5 16.6c1.1 1.7 1.1 1.7.6 0-.5-1.5-.2-1.7 1.6-1.1 2.2.7 7.8 4.4 7.8 5.1 0 .3-.4.1-1-.2-.5-.3-1-.1-1 .4 0 .6.7 1.1 1.5 1.1s1.9.9 2.5 1.9c1.3 2.5 1.3 3.4 0 2.6-.5-.3-1-.1-1 .4 0 .6.6 1.1 1.4 1.1 3.2 0 2.6 8.2-1 13.9-2.6 3.8-3.9 5-7.8 6.6-4.7 2-7.9 1.9-12.5-.5-7.1-3.6-10.5-9.6-9.8-17.3.2-2.4.4-2.5 1.4-1.1 1.1 1.5 1.2 1.4 1-.5-.1-1.1-.5-2.1-.9-2.1s-.8-.5-.8-1c0-1.6 2.4-.7 3.7 1.5 1 1.7 1.2 1.7 1.3.3 0-.9-.4-2-1-2.3-1.6-1-1.1-2.6.8-2.3 1.1.2 1.7-.3 1.6-1.4-.1-.9.4-1.9 1-2.1.7-.3 1.3.7 1.4 2.7.2 1.8 1.1 3.8 2.4 4.8l2.2 1.6-2.2.4c-1.5.2-1.9.7-1.3 1.7.7 1.1 1.5.9 4-1 1.7-1.2 3.4-2 3.8-1.6.3.4.2.7-.3.7-1.2 0-1 5.8.3 7.1.7.7.9.2.6-1.6-.4-1.8 0-3 1.3-4 1.9-1.5 1.9-1.5 0-3-1.7-1.3-1.8-1.5-.3-1.5.9 0 1.7-.7 1.7-1.5s-.9-1.5-2.1-1.5c-1.1 0-1.7.4-1.4 1 .7 1.2-3.9 2.4-6.2 1.6-1.4-.6-1.4-.8.3-2.1s1.7-1.4.2-1.5c-2.6 0-2.2-1.5.8-2.9 1.7-.7 2.4-1.7 2-2.6-.8-2.1 2-1.9 3.4.2z"/><path d="M1016 1044c0 .5.5 1 1 1 .6 0 1-.5 1-1 0-.6-.4-1-1-1-.5 0-1 .4-1 1zM1007 1060c0 .5.5 1 1.1 1 .5 0 .7-.5.4-1-.3-.6-.8-1-1.1-1-.2 0-.4.4-.4 1z"/></g><style>@media (prefers-color-scheme:dark){g{fill:#fff}}</style></svg>