<?xml version="1.0" standalone="no"?>
<!DOCTYPE svg PUBLIC "-//W3C//DTD SVG 20010904//EN"
 "http://www.w3.org/TR/2001/REC-SVG-20010904/DTD/svg10.dtd">
<svg version="1.0" xmlns="http://www.w3.org/2000/svg"
 width="1248.000000pt" height="1149.000000pt" viewBox="0 0 1248.000000 1149.000000"
 preserveAspectRatio="xMidYMid meet">

<g transform="translate(0.000000,1149.000000) scale(0.100000,-0.100000)"
fill="#000000" stroke="none">
<path d="M6174 11446 c-96 -42 -109 -180 -23 -258 l29 -27 0 -320 0 -321 55 0
55 0 1 58 c1 31 2 177 3 325 l1 267 34 32 c47 44 63 88 52 139 -21 94 -119
143 -207 105z"/>
<path d="M6155 10193 c-72 -37 -105 -90 -105 -166 0 -60 44 -145 93 -176 l37
-24 0 -1164 c0 -922 -3 -1164 -12 -1168 -7 -2 -87 -11 -178 -20 -430 -43 -738
-137 -983 -302 -94 -63 -330 -254 -402 -324 -33 -33 -65 -59 -71 -59 -6 0 -36
-26 -66 -57 -31 -32 -91 -92 -134 -133 -417 -403 -702 -910 -814 -1448 -25
-117 -60 -376 -61 -451 -1 -83 -10 -105 -42 -109 -28 -3 -28 -4 -25 -70 3 -66
4 -67 33 -72 30 -5 30 -6 38 -90 39 -427 106 -676 277 -1025 144 -295 329
-545 584 -794 47 -46 86 -88 86 -95 0 -17 -163 -235 -188 -250 -5 -3 -29 13
-53 35 -30 27 -129 82 -304 168 -255 125 -571 293 -670 355 -27 18 -71 44 -97
59 l-48 28 0 -241 0 -242 203 -98 c112 -54 297 -139 413 -188 287 -123 344
-150 344 -163 0 -15 -100 -150 -281 -378 -149 -187 -309 -410 -309 -429 0 -5
18 -23 39 -40 l40 -32 70 93 c117 153 332 442 393 524 87 121 194 262 246 327
26 33 53 71 61 85 30 54 232 305 256 317 14 7 25 9 25 3 0 -5 -5 -9 -11 -9
-24 0 20 -36 143 -117 308 -202 622 -333 978 -407 158 -33 183 -37 360 -50
l155 -11 3 -522 c2 -415 0 -523 -10 -523 -7 0 -40 -13 -73 -28 -73 -35 -142
-100 -175 -167 -22 -44 -25 -62 -24 -155 0 -95 3 -110 29 -163 67 -136 231
-220 367 -189 126 29 235 118 277 229 72 189 -33 410 -217 457 l-47 12 -5 85
c-3 46 -4 282 -2 525 l4 441 106 6 c363 21 740 123 1079 290 171 84 251 133
418 257 521 388 884 939 1035 1572 32 134 70 403 70 493 0 30 5 57 12 61 6 4
31 7 55 6 l44 0 -3 56 -3 57 -40 5 c-22 3 -45 9 -51 13 -6 4 -14 58 -18 129
-22 383 -107 718 -267 1057 -134 282 -320 546 -573 809 -75 78 -136 148 -136
155 1 13 8 23 53 77 37 43 46 39 179 -88 93 -89 111 -102 174 -122 75 -25 311
-143 519 -260 194 -109 388 -222 406 -237 38 -32 39 -21 37 229 l-3 242 -150
78 c-172 88 -408 196 -640 292 -222 92 -275 118 -275 132 0 17 74 124 165 239
102 129 185 259 185 289 0 28 24 36 34 11 10 -26 30 -16 66 33 131 176 253
346 286 399 21 35 82 120 133 190 107 144 495 687 555 776 l40 59 -30 23 c-16
13 -40 32 -53 44 -14 12 -28 20 -31 19 -14 -6 -108 -126 -215 -273 -60 -82
-136 -188 -170 -235 -34 -47 -90 -125 -125 -175 -55 -77 -498 -669 -555 -741
-16 -21 -17 -28 -7 -45 11 -17 6 -28 -45 -95 -32 -42 -103 -139 -158 -218
-144 -204 -185 -256 -204 -256 -10 0 -51 11 -92 25 -157 54 -488 129 -462 104
4 -3 34 -24 65 -46 81 -55 338 -284 338 -300 0 -13 -33 -67 -63 -105 -22 -27
-38 -22 -98 29 -122 104 -347 278 -432 335 -157 103 -331 175 -536 224 -127
30 -405 71 -526 77 l-90 5 -3 1173 -2 1173 36 30 c53 43 94 112 94 158 0 44
-27 102 -62 135 -54 51 -153 68 -213 36z m23 -3858 c1 -313 0 -580 -3 -592 -4
-15 -13 -23 -27 -23 -33 0 -134 -19 -218 -42 -95 -25 -237 -87 -316 -139 -33
-21 -68 -39 -77 -39 -24 0 -120 117 -315 387 -37 51 -136 183 -220 294 -144
189 -181 244 -171 253 14 12 192 128 229 150 268 154 554 258 825 300 55 9
111 17 125 20 14 2 57 3 95 2 l70 -1 3 -570z m327 560 c307 -40 528 -108 795
-246 136 -71 344 -207 348 -229 1 -9 -42 -74 -96 -145 -161 -214 -210 -279
-402 -535 -100 -135 -189 -246 -196 -248 -8 -2 -50 22 -94 53 -106 75 -243
136 -338 151 -21 3 -40 8 -44 10 -4 3 -42 9 -84 14 -45 5 -80 14 -85 22 -10
15 -12 1151 -2 1161 10 11 69 8 198 -8z m-1651 -722 c63 -87 142 -192 176
-233 33 -41 116 -147 183 -234 67 -88 143 -184 170 -214 26 -30 47 -63 47 -72
0 -9 -14 -29 -31 -46 -43 -41 -141 -179 -174 -244 -62 -123 -94 -246 -122
-480 l-8 -65 -150 0 c-82 0 -220 2 -305 4 l-155 3 0 -62 0 -62 300 1 c165 1
305 -2 311 -6 5 -5 16 -39 22 -76 26 -144 91 -307 165 -417 17 -25 59 -80 94
-122 64 -77 64 -77 49 -107 -9 -16 -33 -50 -53 -74 -97 -114 -565 -701 -630
-789 -19 -27 -39 -48 -45 -48 -17 0 -161 151 -248 260 -87 110 -181 249 -243
362 -135 243 -244 617 -273 936 l-7 72 47 0 47 0 -3 63 -3 62 -35 5 c-33 5
-35 8 -38 45 -6 64 16 248 48 405 83 410 254 764 519 1074 75 88 203 216 217
216 7 0 64 -71 128 -157z m2927 140 c9 -10 41 -41 71 -70 71 -67 137 -143 230
-268 268 -361 415 -776 454 -1285 5 -72 3 -88 -10 -99 -14 -11 -114 -13 -578
-7 -308 3 -564 9 -568 11 -4 3 -11 40 -15 82 -23 250 -91 430 -235 621 -38 52
-70 102 -70 111 0 19 219 313 410 552 112 139 162 203 245 317 22 28 42 52 45
52 3 0 13 -8 21 -17z m-1984 -1018 c56 -24 120 -92 144 -153 31 -84 23 -187
-22 -251 -41 -60 -81 -91 -143 -113 -112 -39 -224 -11 -301 74 -76 84 -92 186
-45 293 28 66 124 149 192 166 41 10 132 1 175 -16z m601 -167 c3 -44 2 -46
-28 -53 -64 -14 -65 -17 -68 -451 -3 -454 -19 -404 129 -397 132 6 154 10 189
40 41 34 62 77 69 143 l6 55 49 3 48 3 -3 -170 c-2 -93 -6 -172 -10 -175 -4
-5 -247 -7 -646 -6 l-143 0 0 43 c0 42 2 44 38 55 68 21 67 12 70 455 l3 398
-53 -3 -53 -3 -3 44 c-6 75 -15 72 205 69 l198 -3 3 -47z m2081 -668 l64 0 -7
-82 c-17 -214 -91 -544 -152 -683 -7 -16 -27 -64 -44 -105 -94 -226 -303 -528
-479 -692 -34 -32 -65 -58 -69 -58 -4 0 -36 39 -72 87 -35 48 -98 128 -140
177 -41 50 -136 163 -210 251 -74 89 -170 204 -214 256 -43 52 -89 106 -102
121 -13 15 -24 32 -24 37 0 5 16 26 35 47 50 55 147 199 182 269 38 75 75 185
99 290 10 44 23 84 29 88 5 4 242 5 525 3 283 -3 544 -5 579 -6z m-2876 -803
c166 -105 363 -173 542 -189 l30 -3 3 -599 c1 -408 -1 -603 -8 -611 -15 -18
-128 -10 -310 21 -351 60 -642 172 -896 343 -143 97 -168 117 -161 133 2 7 58
79 123 159 145 178 207 257 257 327 32 46 84 111 314 395 26 31 48 57 50 57 2
0 27 -15 56 -33z m1374 -9 c51 -54 242 -284 296 -358 22 -30 120 -154 217
-275 224 -279 211 -258 175 -287 -326 -261 -827 -450 -1280 -482 -93 -7 -85
-65 -82 617 l2 602 25 3 c190 21 420 103 535 190 22 17 47 31 55 31 9 1 34
-18 57 -41z m-656 -3060 c47 -16 90 -53 117 -101 27 -51 30 -142 6 -193 -21
-45 -105 -119 -150 -134 -79 -26 -188 21 -249 108 -26 38 -30 52 -30 110 0 60
4 72 33 115 19 27 52 61 74 78 35 25 50 29 103 29 34 0 77 -5 96 -12z"/>
<path d="M4170 4525 l0 -65 58 0 c31 0 62 4 68 8 6 4 14 33 18 65 l7 57 -75 0
-76 0 0 -65z"/>
<path d="M2161 10168 c-56 -30 -81 -75 -81 -146 0 -85 40 -141 115 -161 56
-15 110 2 156 48 101 101 46 261 -96 277 -41 5 -58 1 -94 -18z"/>
<path d="M10150 10158 c-50 -34 -72 -71 -78 -126 -5 -60 21 -115 72 -150 38
-26 112 -30 154 -8 31 16 74 61 91 93 28 55 -5 157 -63 193 -47 29 -132 28
-176 -2z"/>
<path d="M5452 9920 c-6 -11 -12 -29 -12 -40 0 -50 87 -83 110 -41 14 26 13
74 -2 89 -20 20 -81 15 -96 -8z"/>
<path d="M6922 9924 c-14 -10 -22 -26 -22 -44 0 -41 25 -62 68 -58 31 3 38 8
46 35 18 64 -38 105 -92 67z"/>
<path d="M4914 9803 c-22 -4 -44 -40 -44 -73 0 -26 27 -50 55 -50 26 0 65 42
65 71 0 19 -34 60 -47 58 -5 -1 -18 -4 -29 -6z"/>
<path d="M7516 9789 c-31 -25 -33 -47 -5 -83 40 -51 118 -17 105 48 -11 56
-54 71 -100 35z"/>
<path d="M4290 9589 c-6 -11 -8 -33 -5 -50 16 -71 115 -55 115 19 0 48 -88 73
-110 31z"/>
<path d="M8086 9591 c-25 -27 -17 -69 17 -89 25 -15 30 -15 55 -2 33 19 42 69
17 94 -22 22 -68 20 -89 -3z"/>
<path d="M9917 9505 l-47 -75 42 -30 c23 -17 45 -29 49 -28 13 5 99 120 99
132 -1 9 -82 76 -93 76 -2 0 -25 -34 -50 -75z"/>
<path d="M2475 9549 c-16 -11 -37 -24 -45 -28 -11 -8 -5 -22 33 -80 26 -39 51
-71 56 -71 4 0 16 9 26 20 10 11 26 22 36 25 11 4 19 12 19 18 0 16 -78 137
-87 136 -5 0 -21 -9 -38 -20z"/>
<path d="M3827 9294 c-14 -14 -7 -35 11 -32 9 2 17 10 17 17 0 16 -18 25 -28
15z"/>
<path d="M8617 9293 c-4 -3 -7 -15 -7 -25 0 -29 44 -20 48 10 3 16 -2 22 -16
22 -10 0 -22 -3 -25 -7z"/>
<path d="M2737 9122 c-39 -43 -7 -122 49 -122 60 0 92 51 68 108 -12 29 -17
32 -57 32 -30 0 -49 -6 -60 -18z"/>
<path d="M8778 9023 c-15 -2 -41 -20 -58 -39 -25 -29 -30 -43 -30 -85 0 -45 4
-55 34 -85 30 -30 40 -34 86 -34 46 0 56 4 86 34 30 30 34 40 34 89 0 49 -4
59 -31 86 -17 17 -39 31 -49 31 -10 0 -24 2 -32 3 -7 2 -25 2 -40 0z"/>
<path d="M3576 8994 c-52 -53 -52 -147 0 -193 24 -20 36 -23 86 -19 73 5 107
34 115 96 12 86 -37 142 -122 142 -43 0 -57 -5 -79 -26z"/>
<path d="M2973 8801 c-29 -27 -53 -51 -53 -53 0 -2 43 -62 95 -134 53 -71 152
-208 220 -304 265 -373 447 -627 476 -663 l31 -38 39 35 c21 20 50 38 64 42
14 3 25 13 25 22 0 27 -66 128 -174 267 -114 146 -134 173 -173 230 -15 22
-57 81 -94 130 -36 50 -106 147 -156 216 -162 228 -218 299 -233 299 -8 0 -39
-22 -67 -49z"/>
<path d="M800 8606 c-124 -35 -208 -104 -261 -213 -29 -58 -34 -81 -37 -156
-2 -49 -1 -108 2 -132 16 -100 131 -231 246 -278 44 -17 75 -22 150 -22 88 0
100 3 165 35 259 127 322 443 129 650 -98 105 -261 153 -394 116z m180 -141
c104 -37 170 -124 178 -236 6 -84 -14 -143 -66 -201 -162 -179 -452 -62 -452
182 0 182 175 313 340 255z"/>
<path d="M11326 8603 c-93 -28 -198 -110 -236 -183 -58 -114 -66 -282 -18
-391 65 -143 242 -241 408 -225 141 14 278 115 342 253 27 57 32 78 33 152 l1
86 139 87 c77 49 152 94 168 100 15 7 27 19 27 27 0 19 -42 91 -53 91 -16 0
-203 -109 -266 -155 l-61 -45 -18 22 c-83 104 -136 146 -219 175 -65 22 -186
25 -247 6z m191 -138 c95 -28 171 -121 189 -232 10 -64 -18 -142 -72 -202 -68
-76 -111 -94 -200 -89 -149 10 -252 119 -253 271 -2 121 76 220 199 253 60 17
78 17 137 -1z"/>
<path d="M106 8568 c-10 -24 -20 -48 -23 -55 -3 -7 11 -20 32 -30 37 -17 38
-17 49 1 6 10 21 31 34 46 12 15 22 31 22 34 0 10 -63 46 -80 46 -8 0 -24 -19
-34 -42z"/>
<path d="M4997 8582 c-39 -43 -7 -122 49 -122 37 0 60 15 74 50 11 28 11 34
-7 58 -26 35 -90 43 -116 14z"/>
<path d="M7366 8575 c-36 -55 -8 -115 54 -115 47 0 74 31 72 83 -1 39 -24 57
-73 57 -28 0 -41 -6 -53 -25z"/>
<path d="M2527 8392 c-49 -54 18 -132 76 -88 35 27 8 106 -37 106 -13 0 -30
-8 -39 -18z"/>
<path d="M9856 8394 c-9 -8 -16 -28 -16 -44 0 -54 59 -80 93 -42 50 55 -26
138 -77 86z"/>
<path d="M4645 8207 c-19 -47 -10 -74 31 -87 46 -16 71 -5 84 36 17 52 -6 84
-61 84 -36 0 -41 -3 -54 -33z"/>
<path d="M7726 8218 c-35 -49 -7 -108 51 -108 53 0 84 78 45 113 -27 25 -78
22 -96 -5z"/>
<path d="M4305 8113 c-33 -8 -45 -24 -45 -59 0 -70 78 -100 120 -47 42 54 -6
122 -75 106z"/>
<path d="M8096 8088 c-33 -46 -4 -108 49 -108 55 0 87 77 47 113 -27 25 -78
22 -96 -5z"/>
<path d="M3804 7634 c-4 -16 -1 -38 9 -58 21 -43 127 -195 216 -312 68 -89
121 -170 121 -185 0 -4 -42 -21 -92 -39 -137 -49 -464 -189 -690 -296 -231
-109 -288 -139 -305 -162 -10 -12 -13 -78 -13 -249 0 -128 2 -233 5 -233 3 0
18 8 33 18 52 36 248 150 382 224 287 158 465 240 630 290 l94 28 111 106
c131 127 99 95 236 237 129 134 223 214 301 257 29 16 51 30 48 30 -3 0 -70
-13 -150 -29 -129 -27 -243 -59 -419 -118 l-53 -18 -25 30 c-30 36 -93 125
-153 215 -25 36 -85 117 -134 178 -76 96 -93 112 -117 112 -22 0 -30 -6 -35
-26z"/>
<path d="M1733 7482 c-23 -15 -34 -62 -21 -90 36 -74 138 -51 138 31 0 47 -75
85 -117 59z"/>
<path d="M10640 7470 c-43 -43 -11 -120 48 -120 59 0 96 85 54 123 -25 23 -78
21 -102 -3z"/>
<path d="M380 7312 c-40 -40 -41 -88 -4 -126 37 -37 86 -35 125 3 17 17 29 40
29 55 0 34 -47 83 -87 91 -28 6 -38 2 -63 -23z"/>
<path d="M11971 7311 c-29 -29 -36 -77 -16 -107 34 -53 96 -56 141 -7 31 33
30 64 -2 102 -21 25 -33 31 -65 31 -25 0 -46 -7 -58 -19z"/>
<path d="M1425 6851 c-13 -27 -13 -31 1 -45 41 -41 101 2 69 50 -21 33 -51 31
-70 -5z"/>
<path d="M10981 6866 c-18 -22 -10 -70 12 -74 22 -4 57 25 57 48 0 36 -46 53
-69 26z"/>
<path d="M342 6633 c-27 -5 -62 -58 -62 -93 1 -71 104 -107 155 -55 44 43 23
123 -36 144 -18 6 -32 10 -33 10 -1 -1 -11 -4 -24 -6z"/>
<path d="M12070 6631 c-31 -8 -63 -67 -54 -101 9 -40 43 -70 80 -70 38 0 94
47 94 80 0 34 -31 78 -63 90 -17 5 -30 10 -31 9 -1 -1 -12 -4 -26 -8z"/>
<path d="M1191 6524 c-37 -47 -20 -102 38 -122 23 -8 37 -7 63 6 27 14 34 23
36 54 6 78 -91 121 -137 62z"/>
<path d="M11169 6540 c-47 -28 -44 -103 5 -136 70 -45 151 50 99 115 -20 24
-80 37 -104 21z"/>
<path d="M9527 6378 c-3 -79 -2 -190 1 -247 l7 -104 88 -54 c49 -29 173 -109
275 -176 171 -113 251 -169 592 -417 367 -267 981 -755 988 -787 3 -11 -52
-12 -306 -7 -170 4 -362 3 -426 -1 l-116 -7 0 -53 0 -54 500 -3 c606 -4 578 3
450 -115 -123 -115 -463 -384 -754 -598 -429 -316 -537 -391 -781 -546 -110
-70 -271 -173 -357 -230 l-158 -102 0 -228 c0 -126 2 -229 5 -229 3 0 60 31
128 68 133 75 204 114 342 187 50 26 95 51 100 55 6 4 46 27 90 50 228 124
586 349 866 546 228 160 684 510 929 713 36 30 87 72 114 95 28 23 99 84 159
136 61 52 123 105 138 118 16 13 29 29 29 37 0 13 -168 168 -377 346 -65 55
-143 122 -173 148 -30 26 -98 81 -150 121 -52 41 -169 133 -260 205 -193 153
-433 333 -575 430 -55 38 -123 85 -150 105 -184 135 -569 377 -950 597 -69 41
-256 143 -260 143 -1 0 -5 -64 -8 -142z"/>
<path d="M2705 6404 c-184 -102 -456 -264 -580 -344 -33 -22 -89 -58 -125 -80
-62 -38 -165 -109 -386 -264 -185 -130 -506 -371 -661 -496 -86 -69 -182 -145
-213 -170 -68 -53 -216 -177 -280 -236 -25 -23 -112 -99 -195 -169 -179 -153
-235 -205 -235 -221 0 -46 937 -811 1289 -1052 280 -192 353 -240 474 -314
271 -166 737 -438 750 -438 3 0 52 -26 109 -59 147 -83 249 -133 257 -126 3 4
6 111 6 238 l0 232 -45 29 c-25 15 -119 73 -210 128 -443 268 -989 646 -1435
992 -288 224 -445 358 -445 382 0 7 6 16 13 21 6 4 298 10 647 13 l635 5 7 50
c5 34 3 52 -5 58 -7 4 -263 5 -569 3 -307 -3 -558 -1 -558 3 0 9 170 146 480
389 107 83 220 171 250 195 100 78 503 372 620 452 297 202 422 286 511 338
83 48 97 60 103 88 8 40 8 372 0 422 -4 20 -9 37 -13 37 -3 0 -91 -48 -196
-106z"/>
<path d="M2192 4583 c-32 -4 -32 -5 -26 -46 3 -23 7 -48 10 -54 2 -10 47 -13
179 -13 l175 0 0 38 c0 42 13 68 28 58 8 -5 8 -15 2 -31 -7 -20 -6 -25 5 -25
8 0 15 5 15 10 0 20 16 9 26 -19 15 -37 16 -37 354 -31 l275 5 0 55 0 55 -505
1 c-278 0 -520 -1 -538 -3z"/>
<path d="M9277 4583 l-38 -4 3 -52 3 -52 630 0 630 0 3 51 c3 46 1 52 -20 58
-25 6 -1147 5 -1211 -1z"/>
<path d="M9335 2788 c-121 -74 -270 -159 -390 -222 -71 -38 -134 -72 -140 -76
-5 -4 -77 -42 -160 -85 -162 -84 -260 -139 -287 -163 -11 -9 -18 -29 -18 -48
0 -31 -24 -69 -96 -157 -14 -17 -21 -34 -17 -45 7 -20 89 -128 103 -137 11 -7
97 35 165 81 28 18 140 71 250 118 221 93 459 201 577 262 l77 39 1 58 c2 67
2 74 1 262 -1 80 -4 145 -8 144 -5 0 -30 -14 -58 -31z"/>
<path d="M8618 1574 c-21 -13 -38 -29 -38 -34 0 -10 60 -93 256 -355 110 -146
121 -157 142 -146 40 22 62 52 53 70 -49 90 -352 492 -371 490 -3 0 -22 -11
-42 -25z"/>
<path d="M2230 1217 c-116 -40 -187 -114 -216 -227 -51 -199 101 -403 300
-402 131 0 257 83 317 210 29 59 31 72 26 133 -12 138 -115 259 -252 295 -69
19 -99 17 -175 -9z m146 -152 c52 -15 111 -65 99 -84 -3 -7 -1 -10 6 -9 18 4
22 -58 8 -109 -20 -74 -112 -140 -177 -128 -9 2 -30 7 -46 10 -39 8 -93 66
-106 113 -25 94 28 182 128 212 37 11 33 12 88 -5z"/>
<path d="M2340 950 c11 -7 7 -10 -17 -10 -30 0 -33 -3 -33 -32 0 -18 -2 -42
-4 -53 -2 -11 -1 -14 1 -7 3 7 21 12 44 12 l39 0 0 50 c0 45 -2 50 -22 50 -19
0 -20 -2 -8 -10z"/>
<path d="M10025 1229 c-120 -42 -190 -110 -225 -219 -40 -125 -11 -247 82
-338 60 -60 132 -85 228 -80 136 8 238 75 295 195 95 199 -58 441 -285 450
-36 1 -78 -2 -95 -8z m105 -166 c11 -17 11 -17 6 0 -5 15 -2 17 16 11 22 -7
78 -44 78 -51 0 -3 -4 -1 -10 2 -5 3 -10 1 -10 -4 0 -6 7 -11 15 -11 8 0 19
-9 25 -19 13 -25 13 -34 0 -26 -5 3 -10 1 -10 -4 0 -6 6 -11 14 -11 32 0 26
-82 -10 -139 -26 -38 -39 -50 -78 -66 -47 -20 -79 -19 -125 5 -71 36 -105 96
-98 173 2 24 4 25 14 11 11 -15 12 -14 10 5 -1 11 -5 21 -9 21 -4 0 -8 5 -8
10 0 16 24 7 37 -15 10 -17 12 -17 13 -3 0 9 -4 20 -10 23 -16 10 -11 26 8 23
11 -2 17 3 16 14 -1 9 4 19 10 21 7 3 13 -7 14 -27 2 -18 11 -38 24 -48 l22
-16 -22 -4 c-15 -2 -19 -7 -13 -17 7 -11 15 -9 40 10 17 12 34 20 38 16 3 -4
2 -7 -3 -7 -12 0 -10 -58 3 -71 7 -7 9 -2 6 16 -4 18 0 30 13 40 19 15 19 15
0 30 -17 13 -18 15 -3 15 9 0 17 7 17 15 0 8 -9 15 -21 15 -11 0 -17 -4 -14
-10 7 -12 -39 -24 -62 -16 -14 6 -14 8 3 21 17 13 17 14 2 15 -26 0 -22 15 8
29 17 7 24 17 20 26 -8 21 20 19 34 -2z"/>
<path d="M10160 1050 c0 -5 5 -10 10 -10 6 0 10 5 10 10 0 6 -4 10 -10 10 -5
0 -10 -4 -10 -10z"/>
<path d="M10070 890 c0 -5 5 -10 11 -10 5 0 7 5 4 10 -3 6 -8 10 -11 10 -2 0
-4 -4 -4 -10z"/>
</g>

<style>
g { fill: #000; }

@media (prefers-color-scheme: dark) {
  g { fill: #fff; }
}
</style>
</svg>
